<svg width="322" height="44" viewBox="0 0 322 44" fill="none" xmlns="http://www.w3.org/2000/svg">
<path d="M4.2725 1.32H11.1845V1.8H10.9445C10.6885 1.8 10.4645 1.896 10.2725 2.088C10.0805 2.248 9.9045 2.472 9.7445 2.76C9.6165 3.016 9.5045 3.288 9.4085 3.576C9.3445 3.864 9.3125 4.12 9.3125 4.344V31.08C9.3125 32.104 9.1845 33.048 8.9285 33.912C8.6725 34.776 8.3205 35.576 7.8725 36.312C7.4565 37.08 6.9765 37.768 6.4325 38.376C5.9205 39.016 5.3765 39.592 4.8005 40.104C3.4885 41.288 1.9845 42.28 0.288501 43.08L0.0485006 42.696C1.1685 41.896 2.1605 40.952 3.0245 39.864C3.7605 38.936 4.4485 37.8 5.0885 36.456C5.7285 35.112 6.0485 33.56 6.0485 31.8V4.344C6.0485 4.12 6.0165 3.864 5.9525 3.576C5.8885 3.288 5.7765 3.016 5.6165 2.76C5.4885 2.472 5.3285 2.248 5.1365 2.088C4.9445 1.896 4.7365 1.8 4.5125 1.8H4.2725V1.32ZM17.21 1.32H24.026V1.8H23.786C23.53 1.8 23.306 1.896 23.114 2.088C22.922 2.248 22.746 2.456 22.586 2.712C22.458 2.968 22.362 3.24 22.298 3.528C22.234 3.816 22.202 4.072 22.202 4.296V23.256C22.202 24.504 22.33 25.656 22.586 26.712C22.842 27.768 23.274 28.68 23.882 29.448C24.49 30.216 25.29 30.824 26.282 31.272C27.274 31.688 28.49 31.896 29.93 31.896C31.53 31.896 32.81 31.64 33.77 31.128C34.73 30.616 35.466 29.96 35.978 29.16C36.49 28.328 36.826 27.4 36.986 26.376C37.146 25.352 37.226 24.344 37.226 23.352V4.296C37.226 4.072 37.194 3.816 37.13 3.528C37.066 3.24 36.954 2.968 36.794 2.712C36.666 2.456 36.506 2.248 36.314 2.088C36.122 1.896 35.914 1.8 35.69 1.8H35.45V1.32H40.682V1.8H40.442C40.186 1.8 39.962 1.896 39.77 2.088C39.61 2.248 39.45 2.456 39.29 2.712C39.162 2.968 39.066 3.24 39.002 3.528C38.938 3.816 38.906 4.072 38.906 4.296V23.208C38.906 25.288 38.65 27 38.138 28.344C37.626 29.656 36.922 30.696 36.026 31.464C35.13 32.232 34.074 32.76 32.858 33.048C31.674 33.336 30.41 33.48 29.066 33.48C27.626 33.48 26.282 33.32 25.034 33C23.818 32.712 22.762 32.184 21.866 31.416C20.97 30.648 20.266 29.608 19.754 28.296C19.242 26.952 18.986 25.272 18.986 23.256V4.296C18.986 4.072 18.954 3.816 18.89 3.528C18.826 3.24 18.714 2.968 18.554 2.712C18.426 2.456 18.266 2.248 18.074 2.088C17.882 1.896 17.674 1.8 17.45 1.8H17.21V1.32ZM66.1213 24.504C66.1213 26.104 65.8013 27.48 65.1613 28.632C64.5213 29.752 63.6893 30.664 62.6653 31.368C61.6733 32.072 60.5373 32.584 59.2573 32.904C58.0093 33.224 56.7613 33.384 55.5133 33.384C54.2333 33.384 53.1293 33.256 52.2013 33C51.2733 32.744 50.4253 32.504 49.6573 32.28C49.1453 32.12 48.6813 31.992 48.2653 31.896C47.8493 31.768 47.4333 31.704 47.0173 31.704V26.232H47.4973C47.4973 27.448 47.8013 28.424 48.4093 29.16C49.0493 29.864 49.7853 30.408 50.6173 30.792C51.4493 31.176 52.2813 31.432 53.1133 31.56C53.9453 31.656 54.5533 31.704 54.9373 31.704C56.3133 31.704 57.4973 31.512 58.4893 31.128C59.4813 30.712 60.2973 30.184 60.9373 29.544C61.5773 28.872 62.0413 28.136 62.3293 27.336C62.6493 26.536 62.8093 25.72 62.8093 24.888C62.8093 23.832 62.5853 22.952 62.1373 22.248C61.6893 21.512 61.0973 20.872 60.3613 20.328C59.6573 19.784 58.8413 19.32 57.9133 18.936C56.9853 18.552 56.0413 18.168 55.0813 17.784C53.9933 17.368 52.9213 16.936 51.8653 16.488C50.8093 16.04 49.8653 15.496 49.0333 14.856C48.2013 14.184 47.5293 13.4 47.0173 12.504C46.5053 11.576 46.2493 10.44 46.2493 9.096C46.2493 7.688 46.5213 6.472 47.0653 5.448C47.6093 4.392 48.3293 3.528 49.2253 2.856C50.1533 2.184 51.1933 1.688 52.3453 1.368C53.5293 1.016 54.7293 0.839999 55.9453 0.839999C56.7773 0.839999 57.5613 0.903999 58.2973 1.032C59.0333 1.128 59.7373 1.256 60.4093 1.416C60.9533 1.544 61.4813 1.656 61.9933 1.752C62.5053 1.816 63.0013 1.848 63.4813 1.848V6.792H63.0013C62.9373 5.128 62.2813 4.008 61.0333 3.432C59.7853 2.824 58.0573 2.52 55.8493 2.52C54.5693 2.52 53.5133 2.744 52.6813 3.192C51.8813 3.608 51.2413 4.136 50.7613 4.776C50.2813 5.384 49.9453 6.056 49.7533 6.792C49.5933 7.496 49.5133 8.12 49.5133 8.664C49.5133 9.56 49.7053 10.328 50.0893 10.968C50.5053 11.608 51.0493 12.168 51.7213 12.648C52.3933 13.128 53.1613 13.56 54.0253 13.944C54.9213 14.328 55.8493 14.696 56.8093 15.048C57.8973 15.464 59.0013 15.912 60.1213 16.392C61.2413 16.872 62.2333 17.464 63.0973 18.168C63.9933 18.872 64.7133 19.736 65.2573 20.76C65.8333 21.784 66.1213 23.032 66.1213 24.504ZM82.0153 32.52H82.2553V33H75.4393V32.52H75.6793C75.9353 32.52 76.1593 32.424 76.3513 32.232C76.5433 32.04 76.7033 31.816 76.8313 31.56C76.9913 31.304 77.1033 31.032 77.1673 30.744C77.2313 30.424 77.2633 30.136 77.2633 29.88V3.096H71.6953C71.1833 3.096 70.7353 3.208 70.3513 3.432C69.9673 3.656 69.6473 3.944 69.3913 4.296C69.1353 4.616 68.9433 4.984 68.8153 5.4C68.6873 5.784 68.6233 6.168 68.6233 6.552H68.1433V1.32H89.6953V6.552H89.2153C89.2153 6.168 89.1513 5.784 89.0233 5.4C88.8953 4.984 88.7033 4.616 88.4473 4.296C88.1913 3.944 87.8713 3.656 87.4873 3.432C87.1033 3.208 86.6553 3.096 86.1433 3.096H80.4793V29.88C80.4793 30.136 80.5113 30.424 80.5753 30.744C80.6393 31.032 80.7353 31.304 80.8633 31.56C81.0233 31.816 81.1833 32.04 81.3433 32.232C81.5353 32.424 81.7593 32.52 82.0153 32.52ZM93.7644 32.52H94.0044C94.2604 32.52 94.4844 32.44 94.6764 32.28C94.8684 32.088 95.0284 31.864 95.1564 31.608C95.3164 31.352 95.4284 31.08 95.4924 30.792C95.5884 30.504 95.6364 30.232 95.6364 29.976V4.296C95.6364 4.072 95.5884 3.816 95.4924 3.528C95.4284 3.24 95.3164 2.968 95.1564 2.712C95.0284 2.456 94.8684 2.248 94.6764 2.088C94.4844 1.896 94.2604 1.8 94.0044 1.8H93.7644V1.32H112.244V5.784H111.764C111.7 5.048 111.412 4.408 110.9 3.864C110.388 3.288 109.588 3 108.5 3H98.8524V15.144H106.82C107.556 15.144 108.164 14.92 108.644 14.472C109.156 14.024 109.412 13.496 109.412 12.888H109.892V18.888H109.412C109.412 18.312 109.172 17.816 108.692 17.4C108.212 16.984 107.588 16.776 106.82 16.776H98.8524V31.32H109.364C109.972 31.32 110.5 31.176 110.948 30.888C111.396 30.6 111.764 30.264 112.052 29.88C112.372 29.464 112.596 29.032 112.724 28.584C112.884 28.104 112.964 27.704 112.964 27.384H113.444V33H93.7644V32.52ZM132.41 1.32H139.226V1.8H138.986C138.73 1.8 138.506 1.896 138.314 2.088C138.122 2.248 137.946 2.456 137.786 2.712C137.658 2.968 137.562 3.24 137.498 3.528C137.434 3.816 137.402 4.072 137.402 4.296V23.256C137.402 24.504 137.53 25.656 137.786 26.712C138.042 27.768 138.474 28.68 139.082 29.448C139.69 30.216 140.49 30.824 141.482 31.272C142.474 31.688 143.69 31.896 145.13 31.896C146.73 31.896 148.01 31.64 148.97 31.128C149.93 30.616 150.666 29.96 151.178 29.16C151.69 28.328 152.026 27.4 152.186 26.376C152.346 25.352 152.426 24.344 152.426 23.352V4.296C152.426 4.072 152.394 3.816 152.33 3.528C152.266 3.24 152.154 2.968 151.994 2.712C151.866 2.456 151.706 2.248 151.514 2.088C151.322 1.896 151.114 1.8 150.89 1.8H150.65V1.32H155.882V1.8H155.642C155.386 1.8 155.162 1.896 154.97 2.088C154.81 2.248 154.65 2.456 154.49 2.712C154.362 2.968 154.266 3.24 154.202 3.528C154.138 3.816 154.106 4.072 154.106 4.296V23.208C154.106 25.288 153.85 27 153.338 28.344C152.826 29.656 152.122 30.696 151.226 31.464C150.33 32.232 149.274 32.76 148.058 33.048C146.874 33.336 145.61 33.48 144.266 33.48C142.826 33.48 141.482 33.32 140.234 33C139.018 32.712 137.962 32.184 137.066 31.416C136.17 30.648 135.466 29.608 134.954 28.296C134.442 26.952 134.186 25.272 134.186 23.256V4.296C134.186 4.072 134.154 3.816 134.09 3.528C134.026 3.24 133.914 2.968 133.754 2.712C133.626 2.456 133.466 2.248 133.274 2.088C133.082 1.896 132.874 1.8 132.65 1.8H132.41V1.32ZM166.921 32.52H167.161V33H161.833V32.52H162.073C162.297 32.52 162.505 32.424 162.697 32.232C162.921 32.04 163.097 31.816 163.225 31.56C163.353 31.304 163.449 31.032 163.513 30.744C163.609 30.424 163.657 30.136 163.657 29.88V4.296C163.657 4.072 163.625 3.816 163.561 3.528C163.529 3.24 163.449 2.968 163.321 2.712C163.193 2.456 163.017 2.248 162.793 2.088C162.569 1.896 162.297 1.8 161.977 1.8H161.737V1.32H166.585L184.009 28.776V4.296C184.009 4.072 183.961 3.816 183.865 3.528C183.801 3.24 183.689 2.968 183.529 2.712C183.401 2.456 183.241 2.248 183.049 2.088C182.857 1.896 182.633 1.8 182.377 1.8H182.137V1.32H187.513V1.8H187.273C187.017 1.8 186.793 1.896 186.601 2.088C186.409 2.248 186.233 2.456 186.073 2.712C185.945 2.968 185.849 3.24 185.785 3.528C185.721 3.816 185.689 4.072 185.689 4.296V33H182.713L165.337 5.448V29.88C165.337 30.136 165.369 30.424 165.433 30.744C165.497 31.032 165.593 31.304 165.721 31.56C165.881 31.816 166.057 32.04 166.249 32.232C166.441 32.424 166.665 32.52 166.921 32.52ZM224.267 2.568C221.899 2.568 219.835 3 218.075 3.864C216.347 4.696 214.907 5.8 213.755 7.176C212.603 8.52 211.739 10.04 211.163 11.736C210.619 13.432 210.347 15.112 210.347 16.776C210.347 18.664 210.715 20.52 211.451 22.344C212.187 24.136 213.195 25.736 214.475 27.144C215.787 28.52 217.307 29.64 219.035 30.504C220.763 31.336 222.635 31.752 224.651 31.752C225.227 31.752 225.899 31.688 226.667 31.56C227.467 31.432 228.251 31.192 229.019 30.84C229.787 30.456 230.491 29.928 231.131 29.256C231.803 28.584 232.315 27.704 232.667 26.616H233.147V31.944C232.667 31.944 232.155 32.008 231.611 32.136C231.099 32.264 230.523 32.408 229.883 32.568C229.051 32.792 228.123 33 227.099 33.192C226.107 33.384 225.051 33.48 223.931 33.48C221.147 33.48 218.699 33 216.587 32.04C214.475 31.08 212.715 29.832 211.307 28.296C209.899 26.76 208.843 25.032 208.139 23.112C207.435 21.16 207.083 19.192 207.083 17.208C207.083 15.224 207.435 13.256 208.139 11.304C208.843 9.352 209.915 7.608 211.355 6.072C212.795 4.504 214.603 3.24 216.779 2.28C218.955 1.32 221.515 0.839999 224.459 0.839999C225.515 0.839999 226.459 0.935999 227.291 1.128C228.155 1.32 228.923 1.512 229.595 1.704C230.075 1.864 230.507 1.992 230.891 2.088C231.307 2.152 231.707 2.184 232.091 2.184V7.512H231.611C231.419 6.52 231.067 5.704 230.555 5.064C230.043 4.392 229.435 3.88 228.731 3.528C228.059 3.176 227.323 2.936 226.523 2.808C225.755 2.648 225.003 2.568 224.267 2.568ZM238.717 32.52H238.957C239.213 32.52 239.437 32.44 239.629 32.28C239.821 32.088 239.981 31.864 240.109 31.608C240.269 31.352 240.381 31.08 240.445 30.792C240.541 30.504 240.589 30.232 240.589 29.976V4.296C240.589 4.072 240.541 3.816 240.445 3.528C240.381 3.24 240.269 2.968 240.109 2.712C239.981 2.456 239.821 2.248 239.629 2.088C239.437 1.896 239.213 1.8 238.957 1.8H238.717V1.32H245.629V1.8H245.389C245.133 1.8 244.909 1.896 244.717 2.088C244.525 2.248 244.365 2.456 244.237 2.712C244.109 2.968 243.997 3.24 243.901 3.528C243.837 3.816 243.805 4.072 243.805 4.296V31.224H254.317C254.925 31.224 255.453 31.08 255.901 30.792C256.349 30.504 256.717 30.152 257.005 29.736C257.325 29.288 257.549 28.824 257.677 28.344C257.837 27.832 257.917 27.368 257.917 26.952H258.397V33H238.717V32.52ZM276.677 0.839999C279.173 0.839999 281.413 1.288 283.397 2.184C285.381 3.048 287.061 4.232 288.437 5.736C289.845 7.208 290.917 8.936 291.653 10.92C292.421 12.872 292.805 14.92 292.805 17.064C292.805 19.464 292.357 21.672 291.461 23.688C290.597 25.704 289.397 27.432 287.861 28.872C286.325 30.312 284.533 31.448 282.485 32.28C280.469 33.08 278.309 33.48 276.005 33.48C273.541 33.48 271.317 33.032 269.333 32.136C267.381 31.24 265.717 30.056 264.341 28.584C262.997 27.112 261.957 25.416 261.221 23.496C260.485 21.576 260.117 19.576 260.117 17.496C260.117 15.448 260.485 13.432 261.221 11.448C261.957 9.432 263.029 7.64 264.437 6.072C265.877 4.504 267.621 3.24 269.669 2.28C271.717 1.32 274.053 0.839999 276.677 0.839999ZM276.629 31.8C278.773 31.704 280.645 31.224 282.245 30.36C283.877 29.464 285.237 28.344 286.325 27C287.413 25.624 288.213 24.12 288.725 22.488C289.269 20.856 289.541 19.24 289.541 17.64C289.541 15.88 289.221 14.104 288.581 12.312C287.941 10.52 287.029 8.904 285.845 7.464C284.661 5.992 283.237 4.808 281.573 3.912C279.941 2.984 278.101 2.52 276.053 2.52C274.069 2.52 272.293 2.968 270.725 3.864C269.157 4.728 267.813 5.848 266.693 7.224C265.605 8.6 264.773 10.136 264.197 11.832C263.621 13.528 263.333 15.192 263.333 16.824C263.333 18.584 263.669 20.36 264.341 22.152C265.013 23.912 265.941 25.512 267.125 26.952C268.309 28.392 269.701 29.56 271.301 30.456C272.933 31.352 274.709 31.8 276.629 31.8ZM298.456 1.32H305.272V1.8H305.032C304.776 1.8 304.552 1.896 304.36 2.088C304.168 2.248 303.992 2.456 303.832 2.712C303.704 2.968 303.608 3.24 303.544 3.528C303.48 3.816 303.448 4.072 303.448 4.296V23.256C303.448 24.504 303.576 25.656 303.832 26.712C304.088 27.768 304.52 28.68 305.128 29.448C305.736 30.216 306.536 30.824 307.528 31.272C308.52 31.688 309.736 31.896 311.176 31.896C312.776 31.896 314.056 31.64 315.016 31.128C315.976 30.616 316.712 29.96 317.224 29.16C317.736 28.328 318.072 27.4 318.232 26.376C318.392 25.352 318.472 24.344 318.472 23.352V4.296C318.472 4.072 318.44 3.816 318.376 3.528C318.312 3.24 318.2 2.968 318.04 2.712C317.912 2.456 317.752 2.248 317.56 2.088C317.368 1.896 317.16 1.8 316.936 1.8H316.696V1.32H321.928V1.8H321.688C321.432 1.8 321.208 1.896 321.016 2.088C320.856 2.248 320.696 2.456 320.536 2.712C320.408 2.968 320.312 3.24 320.248 3.528C320.184 3.816 320.152 4.072 320.152 4.296V23.208C320.152 25.288 319.896 27 319.384 28.344C318.872 29.656 318.168 30.696 317.272 31.464C316.376 32.232 315.32 32.76 314.104 33.048C312.92 33.336 311.656 33.48 310.312 33.48C308.872 33.48 307.528 33.32 306.28 33C305.064 32.712 304.008 32.184 303.112 31.416C302.216 30.648 301.512 29.608 301 28.296C300.488 26.952 300.232 25.272 300.232 23.256V4.296C300.232 4.072 300.2 3.816 300.136 3.528C300.072 3.24 299.96 2.968 299.8 2.712C299.672 2.456 299.512 2.248 299.32 2.088C299.128 1.896 298.92 1.8 298.696 1.8H298.456V1.32Z" fill="white"/>
</svg>
